# File created by Blade
# Date/Time:  Mon Nov 15 14:44:42 2010
#---------------------------------------------------------
:version 1.10
:name HOM
:units
  mass 1.0
  length 1.000000
  angle deg
:documentation
     Acclaim Skeleton File
:root
   axis xyz
   order TX TY TZ RX RY RZ
   position 0.000000 0.000000 0.000000
   orientation 0 0 0
:bonedata
   begin
      id 1
      name LeftUpLeg_dum
      direction 1.000000 0.000000 0.000000
      length 4.719518
      axis 0.0 0.0 0.0 xyz
   end
   begin
      id 2
      name RightUpLeg_dum
      direction -1.000000 0.000000 0.000000
      length 4.719518
      axis 0.0 0.0 0.0 xyz
   end
   begin
      id 3
      name Spine_dum
      direction 0.000000 1.000000 0.000000
      length 0.039370
      axis 0.0 0.0 0.0 xyz
   end
   begin
      id 4
      name LeftUpLeg
      direction 0.000000 -1.000000 0.000000
      length 19.141694
      axis 0.0 0.0 0.0 xyz
      dof rx ry rz
   end
   begin
      id 5
      name LeftLeg
      direction 0.000000 -1.000000 0.000000
      length 19.555040
      axis 0.0 0.0 0.0 xyz
      dof rx ry rz
   end
   begin
      id 6
      name LeftFoot
      direction 0.000000 -0.258819 0.965926
      length 6.929396
      axis 15.0 0.0 0.0 xyz
      dof rx ry rz
   end
   begin
      id 7
      name LeftToeBase
      direction 0.000000 0.000000 1.000000
      length 2.952750
      axis 0.0 0.0 0.0 xyz
      dof rx ry rz
   end
   begin
      id 8
      name RightUpLeg
      direction 0.000000 -1.000000 0.000000
      length 19.141694
      axis 0.0 0.0 0.0 xyz
      dof rx ry rz
   end
   begin
      id 9
      name RightLeg
      direction 0.000000 -1.000000 0.000000
      length 19.555040
      axis 0.0 0.0 0.0 xyz
      dof rx ry rz
   end
   begin
      id 10
      name RightFoot
      direction 0.000000 -0.258819 0.965926
      length 6.929396
      axis 15.0 0.0 0.0 xyz
      dof rx ry rz
   end
   begin
      id 11
      name RightToeBase
      direction 0.000000 0.000000 1.000000
      length 2.952750
      axis 0.0 0.0 0.0 xyz
      dof rx ry rz
   end
   begin
      id 12
      name Spine
      direction 0.000000 1.000000 0.000000
      length 11.965764
      axis 0.0 0.0 0.0 xyz
      dof rx ry rz
   end
   begin
      id 13
      name Spine1
      direction 0.000000 1.000000 0.000000
      length 0.000000
      axis 0.0 0.0 0.0 xyz
      dof rx ry rz
   end
   begin
      id 14
      name Spine1_dum1
      direction 0.000000 1.000000 0.000000
      length 9.788721
      axis 0.0 0.0 0.0 xyz
   end
   begin
      id 15
      name Spine1_dum2
      direction 0.000000 1.000000 0.000000
      length 9.788721
      axis 0.0 0.0 0.0 xyz
   end
   begin
      id 16
      name Spine1_dum3
      direction 0.000000 1.000000 0.000000
      length 9.788721
      axis 0.0 0.0 0.0 xyz
   end
   begin
      id 17
      name Neck
      direction 0.000000 1.000000 0.000000
      length 7.029632
      axis 0.0 0.0 0.0 xyz
      dof rx ry rz
   end
   begin
      id 18
      name Head
      direction 0.000000 1.000000 0.000000
      length 4.527550
      axis 0.0 0.0 0.0 xyz
      dof rx ry rz
   end
   begin
      id 19
      name LeftShoulder
      direction 1.000000 -0.000004 0.000000
      length 9.320257
      axis 0.0 0.0 -90.0 xyz
      dof rx ry rz
   end
   begin
      id 20
      name LeftArm
      direction 1.000000 -0.000004 0.000000
      length 12.801352
      axis 0.0 0.0 -90.0 xyz
      dof rx ry rz
   end
   begin
      id 21
      name LeftForeArm
      direction 1.000000 -0.000004 0.000000
      length 11.278127
      axis 0.0 0.0 -90.0 xyz
      dof rx ry rz
   end
   begin
      id 22
      name LeftHand
      direction 0.000000 0.000000 0.000000
      length 0.000000
      axis 0.0 0.0 -90.0 xyz
      dof rx ry rz
   end
   begin
      id 23
      name LeftHand_dum1
      direction 0.000000 0.000000 0.000000
      length 0.000000
      axis 0.0 0.0 -90.0 xyz
   end
   begin
      id 24
      name LeftHand_dum2
      direction 1.000000 -0.000004 0.000000
      length 3.937000
      axis 0.0 0.0 -90.0 xyz
   end
   begin
      id 25
      name LeftHandThumb
      direction 0.000000 0.000000 1.000000
      length 3.937000
      axis 0.0 0.0 -90.0 xyz
      dof rx ry rz
   end
   begin
      id 26
      name RightShoulder
      direction -1.000000 -0.000004 0.000000
      length 9.320257
      axis 0.0 0.0 90.0 xyz
      dof rx ry rz
   end
   begin
      id 27
      name RightArm
      direction -1.000000 -0.000004 0.000000
      length 12.801352
      axis 0.0 0.0 90.0 xyz
      dof rx ry rz
   end
   begin
      id 28
      name RightForeArm
      direction -1.000000 -0.000004 0.000000
      length 11.278127
      axis 0.0 0.0 90.0 xyz
      dof rx ry rz
   end
   begin
      id 29
      name RightHand
      direction 0.000000 0.000000 0.000000
      length 0.000000
      axis 0.0 0.0 90.0 xyz
      dof rx ry rz
   end
   begin
      id 30
      name RightHand_dum1
      direction 0.000000 0.000000 0.000000
      length 0.000000
      axis 0.0 0.0 90.0 xyz
   end
   begin
      id 31
      name RightHand_dum2
      direction -1.000000 -0.000004 0.000000
      length 5.393690
      axis 0.0 0.0 90.0 xyz
   end
   begin
      id 32
      name RightHandThumb
      direction 0.000000 0.000000 1.000000
      length 3.937000
      axis 0.0 0.0 90.0 xyz
      dof rx ry rz
   end
:hierarchy
   begin
      root LeftUpLeg_dum RightUpLeg_dum Spine_dum
      LeftUpLeg_dum LeftUpLeg
      RightUpLeg_dum RightUpLeg
      Spine_dum Spine
      LeftUpLeg LeftLeg
      LeftLeg LeftFoot
      LeftFoot LeftToeBase
      RightUpLeg RightLeg
      RightLeg RightFoot
      RightFoot RightToeBase
      Spine Spine1
      Spine1 Spine1_dum1 Spine1_dum2 Spine1_dum3
      Spine1_dum1 Neck
      Spine1_dum2 LeftShoulder
      Spine1_dum3 RightShoulder
      Neck Head
      LeftShoulder LeftArm
      LeftArm LeftForeArm
      LeftForeArm LeftHand
      LeftHand LeftHand_dum1 LeftHand_dum2
      LeftHand_dum1 LeftHandThumb
      RightShoulder RightArm
      RightArm RightForeArm
      RightForeArm RightHand
      RightHand RightHand_dum1 RightHand_dum2
      RightHand_dum1 RightHandThumb
   end

# File created by Blade
# Date/Time:  Mon Nov 15 14:56:25 2010
# Frame Rate: 200.000 fps
#------------------------------------------------------
:FULLY-SPECIFIED
:DEGREES
416
root  6.703503 40.103375 -16.077552 -12.739043 -6.802666 4.425606
LeftUpLeg  8.567631 4.457919 -10.160327
LeftLeg  7.970991 -0.000000 0.000000
LeftFoot  2.548185 12.985497 1.936240
LeftToeBase  -19.529160 0.000000 -0.000000
RightUpLeg  -5.402029 -7.098031 -6.373497
RightLeg  57.973949 -0.000000 -0.000000
RightFoot  6.155768 -15.542897 -11.421934
RightToeBase  -33.268554 0.000000 -0.000000
Spine  14.585431 -0.429727 -3.055096
Spine1  2.723614 0.545207 -5.597686
Neck  13.177993 0.159350 -2.812526
Head  -18.838688 -3.339431 2.931103
LeftShoulder  -12.373088 12.565057 -1.075166
LeftArm  16.469342 12.878532 -78.944442
LeftForeArm  19.731953 -0.000000 0.000000
LeftHand  -12.000684 11.100631 -10.434438
LeftHandThumb  0.000000 -0.000000 0.000000
RightShoulder  -10.019859 -12.435899 0.285950
RightArm  14.786025 -25.537332 76.425203
RightForeArm  26.606755 -0.000000 0.000000
RightHand  -2.904892 -2.872493 19.634727
RightHandThumb  0.000000 -0.000000 0.000000
417
root  6.694293 40.141786 -15.723753 -12.749621 -6.497541 4.275993
LeftUpLeg  9.447659 4.484555 -10.009983
LeftLeg  7.355911 -0.000000 0.000000
LeftFoot  2.484105 12.587654 1.734674
LeftToeBase  -19.417935 0.000000 -0.000000
RightUpLeg  -6.113072 -7.210071 -5.933634
RightLeg  57.276804 -0.000000 -0.000000
RightFoot  5.481839 -15.370535 -11.545975
RightToeBase  -32.694391 0.000000 -0.000000
Spine  14.677736 -0.596635 -3.016214
Spine1  2.685627 0.402176 -5.436846
Neck  13.261146 0.142232 -2.821030
Head  -18.874486 -3.360130 2.948161
LeftShoulder  -12.197044 12.427914 -0.891427
LeftArm  16.932307 12.790703 -79.028261
LeftForeArm  20.270218 -0.000000 0.000000
LeftHand  -11.606761 11.062648 -10.248488
LeftHandThumb  0.000000 -0.000000 0.000000
RightShoulder  -10.013958 -12.455013 0.272168
RightArm  14.570594 -25.694941 76.486161
RightForeArm  25.858577 -0.000000 0.000000
RightHand  -3.440657 -3.111572 20.357252
RightHandThumb  0.000000 -0.000000 0.000000
418
root  6.684409 40.174465 -15.369587 -12.758216 -6.165283 4.116144
LeftUpLeg  10.313007 4.519719 -9.833319
LeftLeg  6.762088 -0.000000 0.000000
LeftFoot  2.422112 12.161493 1.625736
LeftToeBase  -19.388887 0.000000 -0.000000
RightUpLeg  -6.764118 -7.277165 -5.500154
RightLeg  56.406751 -0.000000 -0.000000
RightFoot  4.979316 -15.161460 -11.471499
RightToeBase  -32.724615 0.000000 -0.000000
Spine  14.771918 -0.765360 -2.963609
Spine1  2.636570 0.263550 -5.284175
Neck  13.356685 0.124139 -2.813257
Head  -18.912712 -3.341410 2.943419
LeftShoulder  -11.978884 12.266214 -0.683097
LeftArm  17.298987 12.817132 -79.044042
LeftForeArm  20.982686 -0.000000 0.000000
LeftHand  -11.327313 10.896366 -10.156830
LeftHandThumb  0.000000 -0.000000 0.000000
RightShoulder  -9.997048 -12.519883 0.259864
RightArm  14.374077 -25.915063 76.526158
RightForeArm  25.135067 -0.000000 0.000000
RightHand  -3.870262 -3.196955 20.853206
RightHandThumb  0.000000 -0.000000 0.000000
419
root  6.674148 40.202545 -15.015121 -12.767738 -5.833051 3.956342
LeftUpLeg  11.178500 4.552218 -9.656134
LeftLeg  6.168266 -0.000000 0.000000
LeftFoot  2.361045 11.735218 1.517441
LeftToeBase  -19.359840 0.000000 -0.000000
RightUpLeg  -7.415752 -7.339367 -5.065871
RightLeg  55.536697 -0.000000 -0.000000
RightFoot  4.477568 -14.951763 -11.398997
RightToeBase  -32.754840 0.000000 -0.000000
Spine  14.865949 -0.934170 -2.911278
Spine1  2.587144 0.125055 -5.131386
Neck  13.452221 0.106033 -2.805514
Head  -18.950938 -3.322693 2.938664
LeftShoulder  -11.761460 12.103741 -0.475526
LeftArm  17.665698 12.843658 -79.059651
LeftForeArm  21.695153 -0.000000 0.000000
LeftHand  -11.048291 10.729648 -10.066050
LeftHandThumb  0.000000 -0.000000 0.000000
RightShoulder  -9.980120 -12.584750 0.247538
RightArm  14.177019 -26.135060 76.567071
RightForeArm  24.411557 -0.000000 0.000000
RightHand  -4.300626 -3.278619 21.349828
RightHandThumb  0.000000 -0.000000 0.000000
420
root  6.663344 40.227718 -14.658444 -12.797752 -5.483760 3.782966
LeftUpLeg  12.049511 4.628340 -9.442231
LeftLeg  5.599134 -0.000000 0.000000
LeftFoot  2.297587 11.267012 1.423634
LeftToeBase  -19.437382 0.000000 -0.000000
RightUpLeg  -7.968119 -7.392248 -4.640515
RightLeg  54.482397 -0.000000 -0.000000
RightFoot  4.138391 -14.754324 -11.332465
RightToeBase  -32.614130 0.000000 -0.000000
Spine  14.971277 -1.113137 -2.851684
Spine1  2.564840 -0.017040 -4.972307
Neck  13.592108 0.056936 -2.796492
Head  -19.115775 -3.306379 2.945709
LeftShoulder  -11.548049 11.935175 -0.281745
LeftArm  18.036256 12.861084 -79.048428
LeftForeArm  22.428415 -0.000000 0.000000
LeftHand  -10.768787 10.654770 -9.987727
LeftHandThumb  0.000000 -0.000000 0.000000
RightShoulder  -9.947499 -12.634559 0.253566
RightArm  13.963804 -26.300683 76.600493
RightForeArm  23.730217 -0.000000 0.000000
RightHand  -4.808305 -3.395603 21.822768
RightHandThumb  0.000000 -0.000000 0.000000
421
root  6.653620 40.247252 -14.304118 -12.828810 -5.134561 3.609503
LeftUpLeg  12.920893 4.701211 -9.227168
LeftLeg  5.030003 -0.000000 0.000000
LeftFoot  2.235011 10.798706 1.330505
LeftToeBase  -19.514924 0.000000 -0.000000
RightUpLeg  -8.520931 -7.441058 -4.214614
RightLeg  53.428096 -0.000000 -0.000000
RightFoot  3.799758 -14.556508 -11.267202
RightToeBase  -32.473421 0.000000 -0.000000
Spine  15.076425 -1.292212 -2.792414
Spine1  2.542142 -0.159073 -4.813171
Neck  13.731987 0.007816 -2.787589
Head  -19.280606 -3.290044 2.952706
LeftShoulder  -11.335354 11.765906 -0.088727
LeftArm  18.406842 12.878438 -79.037090
LeftForeArm  23.161678 -0.000000 0.000000
LeftHand  -10.489457 10.579518 -9.909795
LeftHandThumb  0.000000 -0.000000 0.000000
RightShoulder  -9.914876 -12.684371 0.259565
RightArm  13.750174 -26.466193 76.634651
RightForeArm  23.048877 -0.000000 0.000000
RightHand  -5.316995 -3.508394 22.296785
RightHandThumb  0.000000 -0.000000 0.000000
422
root  6.647467 40.257716 -13.958152 -12.778461 -4.747156 3.540897
LeftUpLeg  13.651575 4.655378 -9.141149
LeftLeg  4.537914 -0.000000 0.000000
LeftFoot  2.157086 10.364981 1.189461
LeftToeBase  -19.551533 0.000000 -0.000000
RightUpLeg  -9.160358 -7.449569 -3.917573
RightLeg  52.322468 -0.000000 0.000000
RightFoot  3.515049 -14.335688 -11.066228
RightToeBase  -32.400838 0.000000 -0.000000
Spine  15.149673 -1.450636 -2.786422
Spine1  2.471093 -0.309372 -4.722173
Neck  13.743769 -0.080005 -2.747971
Head  -19.231154 -3.290128 2.962681
LeftShoulder  -11.081654 11.572156 0.180894
LeftArm  18.737289 12.979765 -79.005147
LeftForeArm  23.945177 -0.000000 0.000000
LeftHand  -10.174873 10.394897 -9.807078
LeftHandThumb  0.000000 -0.000000 0.000000
RightShoulder  -9.941416 -12.751802 0.286198
RightArm  13.557300 -26.637799 76.667357
RightForeArm  22.404958 -0.000000 0.000000
RightHand  -5.758622 -3.574958 22.817550
RightHandThumb  0.000000 -0.000000 0.000000
423
root  6.642117 40.262885 -13.614290 -12.728604 -4.359691 3.472670
LeftUpLeg  14.382139 4.608456 -9.055728
LeftLeg  4.045825 -0.000000 0.000000
LeftFoot  2.080351 9.931070 1.049207
LeftToeBase  -19.588142 0.000000 -0.000000
RightUpLeg  -9.799830 -7.454792 -3.620449
RightLeg  51.216839 -0.000000 0.000000
RightFoot  3.231418 -14.113906 -10.866584
RightToeBase  -32.328256 0.000000 -0.000000
Spine  15.222911 -1.609067 -2.780633
Spine1  2.399805 -0.459557 -4.630986
Neck  13.755491 -0.167835 -2.708370
Head  -19.181702 -3.290221 2.972656
LeftShoulder  -10.829061 11.377241 0.449451
LeftArm  19.067929 13.080912 -78.972592
LeftForeArm  24.728677 -0.000000 0.000000
LeftHand  -9.860811 10.209725 -9.705453
LeftHandThumb  0.000000 -0.000000 0.000000
RightShoulder  -9.967995 -12.819222 0.312870
RightArm  13.364026 -26.809305 76.700760
RightForeArm  21.761039 -0.000000 0.000000
RightHand  -6.200869 -3.637511 23.338850
RightHandThumb  0.000000 -0.000000 0.000000
424
root  6.635169 40.266250 -13.267360 -12.702084 -3.952240 3.408499
LeftUpLeg  15.111484 4.673789 -8.932970
LeftLeg  3.593780 -0.000000 0.000000
LeftFoot  2.019408 9.434346 0.996194
LeftToeBase  -19.633543 0.000000 -0.000000
RightUpLeg  -10.339428 -7.441633 -3.349219
RightLeg  49.935454 -0.000000 0.000000
RightFoot  3.201301 -13.973317 -10.911623
RightToeBase  -32.352000 0.000000 -0.000000
Spine  15.279330 -1.772888 -2.786347
Spine1  2.413518 -0.614986 -4.534898
Neck  13.750198 -0.199847 -2.689176
Head  -19.195595 -3.320759 3.048807
LeftShoulder  -10.587589 11.172391 0.684598
LeftArm  19.452817 13.171110 -78.878971
LeftForeArm  25.499708 -0.000000 0.000000
LeftHand  -9.513037 9.927928 -9.701938
LeftHandThumb  0.000000 -0.000000 0.000000
RightShoulder  -10.003402 -12.853734 0.370620
RightArm  13.179529 -27.011318 76.692890
RightForeArm  21.169360 -0.000000 0.000000
RightHand  -6.585190 -3.715782 23.633192
RightHandThumb  0.000000 -0.000000 0.000000
